<svg id="visual" viewBox="0 0 960 540" width="960" height="540" xmlns="http://www.w3.org/2000/svg" xmlns:xlink="http://www.w3.org/1999/xlink" version="1.1"><path d="M0 401L137 357L274 372L411 332L549 395L686 400L823 386L960 327L960 541L823 541L686 541L549 541L411 541L274 541L137 541L0 541Z" fill="#f5f5f5"></path><path d="M0 392L137 422L274 418L411 392L549 400L686 401L823 423L960 410L960 541L823 541L686 541L549 541L411 541L274 541L137 541L0 541Z" fill="#c0c0c0"></path><path d="M0 453L137 437L274 421L411 446L549 457L686 423L823 429L960 429L960 541L823 541L686 541L549 541L411 541L274 541L137 541L0 541Z" fill="#8d8d8d"></path><path d="M0 463L137 451L274 469L411 471L549 435L686 462L823 473L960 475L960 541L823 541L686 541L549 541L411 541L274 541L137 541L0 541Z" fill="#5e5e5e"></path><path d="M0 509L137 504L274 509L411 498L549 479L686 505L823 497L960 504L960 541L823 541L686 541L549 541L411 541L274 541L137 541L0 541Z" fill="#323232"></path></svg>