<svg id="visual" viewBox="0 0 960 540" width="960" height="540" xmlns="http://www.w3.org/2000/svg" xmlns:xlink="http://www.w3.org/1999/xlink" version="1.1"><path d="M0 432L22.8 423.3C45.7 414.7 91.3 397.3 137 397.7C182.7 398 228.3 416 274 426.5C319.7 437 365.3 440 411.2 429.3C457 418.7 503 394.3 548.8 389.3C594.7 384.3 640.3 398.7 686 408C731.7 417.3 777.3 421.7 823 425.2C868.7 428.7 914.3 431.3 937.2 432.7L960 434L960 541L937.2 541C914.3 541 868.7 541 823 541C777.3 541 731.7 541 686 541C640.3 541 594.7 541 548.8 541C503 541 457 541 411.2 541C365.3 541 319.7 541 274 541C228.3 541 182.7 541 137 541C91.3 541 45.7 541 22.8 541L0 541Z" fill="#14ffec"></path><path d="M0 454L22.8 452C45.7 450 91.3 446 137 436.3C182.7 426.7 228.3 411.3 274 407.5C319.7 403.7 365.3 411.3 411.2 419.8C457 428.3 503 437.7 548.8 441.3C594.7 445 640.3 443 686 436.2C731.7 429.3 777.3 417.7 823 414.8C868.7 412 914.3 418 937.2 421L960 424L960 541L937.2 541C914.3 541 868.7 541 823 541C777.3 541 731.7 541 686 541C640.3 541 594.7 541 548.8 541C503 541 457 541 411.2 541C365.3 541 319.7 541 274 541C228.3 541 182.7 541 137 541C91.3 541 45.7 541 22.8 541L0 541Z" fill="#00dad0"></path><path d="M0 458L22.8 456.7C45.7 455.3 91.3 452.7 137 450.7C182.7 448.7 228.3 447.3 274 447.3C319.7 447.3 365.3 448.7 411.2 445C457 441.3 503 432.7 548.8 429.5C594.7 426.3 640.3 428.7 686 434C731.7 439.3 777.3 447.7 823 448C868.7 448.3 914.3 440.7 937.2 436.8L960 433L960 541L937.2 541C914.3 541 868.7 541 823 541C777.3 541 731.7 541 686 541C640.3 541 594.7 541 548.8 541C503 541 457 541 411.2 541C365.3 541 319.7 541 274 541C228.3 541 182.7 541 137 541C91.3 541 45.7 541 22.8 541L0 541Z" fill="#00b7b3"></path><path d="M0 475L22.8 472.7C45.7 470.3 91.3 465.7 137 461.7C182.7 457.7 228.3 454.3 274 459.5C319.7 464.7 365.3 478.3 411.2 480.5C457 482.7 503 473.3 548.8 468.3C594.7 463.3 640.3 462.7 686 464.7C731.7 466.7 777.3 471.3 823 473.2C868.7 475 914.3 474 937.2 473.5L960 473L960 541L937.2 541C914.3 541 868.7 541 823 541C777.3 541 731.7 541 686 541C640.3 541 594.7 541 548.8 541C503 541 457 541 411.2 541C365.3 541 319.7 541 274 541C228.3 541 182.7 541 137 541C91.3 541 45.7 541 22.8 541L0 541Z" fill="#059495"></path><path d="M0 485L22.8 488.3C45.7 491.7 91.3 498.3 137 501C182.7 503.7 228.3 502.3 274 499.3C319.7 496.3 365.3 491.7 411.2 489.7C457 487.7 503 488.3 548.8 489.3C594.7 490.3 640.3 491.7 686 492.7C731.7 493.7 777.3 494.3 823 494.7C868.7 495 914.3 495 937.2 495L960 495L960 541L937.2 541C914.3 541 868.7 541 823 541C777.3 541 731.7 541 686 541C640.3 541 594.7 541 548.8 541C503 541 457 541 411.2 541C365.3 541 319.7 541 274 541C228.3 541 182.7 541 137 541C91.3 541 45.7 541 22.8 541L0 541Z" fill="#0d7377"></path></svg>